<svg xmlns="http://www.w3.org/2000/svg" version="1.1" xmlns:xlink="http://www.w3.org/1999/xlink" xmlns:svgjs="http://svgjs.dev/svgjs" width="1000" height="1000" viewBox="0 0 1000 1000"><rect width="1000" height="1000" fill="#051726"></rect><g transform="matrix(0.7,0,0,0.7,149.57575757575756,282.1265587044535)"><svg viewBox="0 0 396 247" data-background-color="#051726" preserveAspectRatio="xMidYMid meet" height="623" width="1000" xmlns="http://www.w3.org/2000/svg" xmlns:xlink="http://www.w3.org/1999/xlink"><defs></defs><g id="tight-bounds" transform="matrix(1,0,0,1,0.2400000000000091,-0.09999999999999432)"><svg viewBox="0 0 395.52 247.2" height="247.2" width="395.52"><g><svg></svg></g><g><svg viewBox="0 0 395.52 247.2" height="247.2" width="395.52"><g transform="matrix(1,0,0,1,75.54432,73.54866471349055)"><svg viewBox="0 0 244.43135999999998 100.1026705730189" height="100.1026705730189" width="244.43135999999998"><g><svg viewBox="0 0 244.43135999999998 100.1026705730189" height="100.1026705730189" width="244.43135999999998"><g><svg viewBox="0 0 244.43136 100.10267057301891" height="100.1026705730189" width="244.43135999999998"><g><svg viewBox="0 0 244.43136 100.10267057301891" height="100.10267057301891" width="244.43136"><g><svg viewBox="0 0 244.43136 100.10267057301891" height="100.10267057301891" width="244.43136"><g><svg viewBox="0 0 244.43136 71.38559470070726" height="71.38559470070726" width="244.43136"><g transform="matrix(1,0,0,1,0,0)"><svg width="244.43136" viewBox="1.399999976158142 -55.400001525878906 289.83001708984375 84.6500015258789" height="71.38559470070726" data-palette-color="#ffffff"><path d="M16.85 0.65Q14.9 0.65 11.1 0.25L11.1 0.25Q8.2-0.05 6.6-0.15L6.6-0.15Q5.95-0.2 5.63-0.33 5.3-0.45 4.55-0.9L4.55-0.9Q5.05-1.6 5.28-2.02 5.5-2.45 5.7-3.2L5.7-3.2Q6.25-5.35 8.6-18.03 10.95-30.7 10.95-31.65L10.95-31.65Q10.95-31.9 10.78-32.08 10.6-32.25 10.25-32.25L10.25-32.25Q10-32.25 7.8-31.85L7.8-31.85Q4.35-31.2 3.2-31.2L3.2-31.2Q1.4-31.2 1.4-32.5L1.4-32.5Q1.4-33.05 1.68-33.88 1.95-34.7 2.2-35.15L2.2-35.15Q2.9-34.9 3.68-34.8 4.45-34.7 6.1-34.7L6.1-34.7Q9.4-34.7 14.2-35.05L14.2-35.05Q19.3-35.35 21.25-35.35L21.25-35.35Q30-35.35 34.43-31.68 38.85-28 38.85-20.8L38.85-20.8Q38.85-15.5 36.5-10.58 34.15-5.65 29.2-2.5 24.25 0.65 16.85 0.65L16.85 0.65ZM17.9-2Q22.8-2 26.43-4.67 30.05-7.35 31.98-11.73 33.9-16.1 33.9-21.1L33.9-21.1Q33.9-27.25 30.65-30.13 27.4-33 20.3-33L20.3-33Q18.4-33 17.55-32.8 16.7-32.6 16.43-32.2 16.15-31.8 15.95-30.95L15.95-30.95Q15.05-26.5 11.4-7.5L11.4-7.5Q11.3-7.1 11.08-5.95 10.85-4.8 10.85-4.25L10.85-4.25Q10.85-3.85 11.05-3.63 11.25-3.4 11.75-3.15L11.75-3.15Q12.85-2.65 14.53-2.33 16.2-2 17.9-2L17.9-2ZM68-11.45Q68.85-11.05 68.85-10.3L68.85-10.3Q68.85-8.05 66.22-5.58 63.6-3.1 59.72-1.43 55.85 0.25 52.55 0.25L52.55 0.25Q49.85 0.25 47.95-0.85 46.05-1.95 45.07-3.33 44.1-4.7 44.1-5.35L44.1-5.35Q44.45-6.65 44.77-8.45 45.1-10.25 45.25-10.95L45.25-10.95Q45.4-11.85 45.62-13.08 45.85-14.3 46.2-15.9L46.2-15.9Q46.4-16.9 47.95-18.13 49.5-19.35 51.47-20.18 53.45-21 54.75-21L54.75-21Q55.85-21 57.37-20.4 58.9-19.8 60-18.73 61.1-17.65 61.1-16.2L61.1-16.2Q61.1-14.35 59.27-12.6 57.45-10.85 54.65-9.73 51.85-8.6 49.15-8.5L49.15-8.5 48.75-6.4Q48.9-4.85 50.2-3.73 51.5-2.6 54.1-2.6L54.1-2.6Q56.6-2.6 59.32-3.75 62.05-4.9 64.37-6.93 66.7-8.95 68-11.45L68-11.45ZM54.3-18.9Q53.05-18.9 51.87-17.7 50.7-16.5 50.4-15.3L50.4-15.3 49.55-10.75Q52.55-10.95 54.65-12.5 56.75-14.05 56.75-16.15L56.75-16.15Q56.75-17.4 56.02-18.15 55.3-18.9 54.3-18.9L54.3-18.9ZM92.9-11.2Q93.35-11.2 93.6-10.88 93.85-10.55 93.85-10.05L93.85-10.05Q93.85-8.7 92.17-6.08 90.5-3.45 87.7-1.43 84.9 0.6 81.5 0.6L81.5 0.6Q78.9 0.6 77.47-0.68 76.05-1.95 76.05-4.05L76.05-4.05Q76.05-5.3 76.52-7.15 77-9 77.85-11.8L77.85-11.8Q78.65-14.4 79.15-16.45L79.15-16.45Q79.1-16.75 78.75-16.75L78.75-16.75Q78.05-16.75 76.05-14.95 74.05-13.15 72.1-10.9 70.15-8.65 69.7-7.55L69.7-7.55Q68.8-3.5 68.6-2.18 68.4-0.85 68.35-0.7L68.35-0.7Q68.3-0.55 68.25-0.33 68.2-0.1 68.12-0.05 68.05 0 67.9 0L67.9 0Q67.15 0 65.55-0.1 63.95-0.2 63.95-0.4L63.95-0.4Q64.25-2.2 65.5-7.9L65.5-7.9Q65.75-9.3 65.75-9.25L65.75-9.25 68-20.25Q68.05-20.6 68.22-20.68 68.4-20.75 68.95-20.75L68.95-20.75Q71.3-20.75 72.35-20L72.35-20Q72.3-19.8 71.8-17.53 71.3-15.25 70.35-11.75L70.35-11.75Q73.15-15.15 76.1-17.9 79.05-20.65 80.1-20.65L80.1-20.65Q80.65-20.65 82.32-20.1 84-19.55 84.1-19.2L84.1-19.2 83.2-15.8Q81.9-11.15 81.25-8.4 80.6-5.65 80.6-4.2L80.6-4.2Q80.6-1.9 82.75-1.9L82.75-1.9Q84.5-1.9 86.57-3.28 88.65-4.65 90.37-6.83 92.1-9 92.9-11.2L92.9-11.2ZM127.54-12.2Q128.14-12.2 128.49-11.88 128.84-11.55 128.84-10.9L128.84-10.9Q128.84-9.4 127.24-6.7 125.64-4 123.04-1.95 120.44 0.1 117.49 0.1L117.49 0.1Q114.84 0.1 112.92-1.53 110.99-3.15 110.99-5.5L110.99-5.5Q110.99-6.8 111.57-8.85 112.14-10.9 113.04-13.6L113.04-13.6Q113.84-16.2 113.94-16.6L113.94-16.6Q113.94-16.75 113.74-16.88 113.54-17 113.34-17L113.34-17Q112.39-17 110.04-13.73 107.69-10.45 106.49-8.15L106.49-8.15Q105.99-6.55 104.69-0.95L104.69-0.95Q104.49-0.1 104.37 0.2 104.24 0.5 103.99 0.5L103.99 0.5Q103.69 0.5 102.77 0.23 101.84-0.05 101.12-0.45 100.39-0.85 100.39-1.25L100.39-1.25Q100.39-1.9 100.84-3.55L100.84-3.55Q101.99-7.75 102.64-10.33 103.29-12.9 104.04-16.6L104.04-16.6Q103.74-17 103.29-17L103.29-17Q102.54-17 101.12-15.43 99.69-13.85 98.07-11.28 96.44-8.7 95.14-5.9L95.14-5.9Q94.24-2.65 93.64 0.45L93.64 0.45Q92.99 0.45 91.27 0.1 89.54-0.25 89.54-0.65L89.54-0.65Q89.54-1 90.04-2.85L90.04-2.85 90.29-4.15Q90.49-5.15 91.59-10.18 92.69-15.2 93.99-20.1L93.99-20.1Q94.09-20.55 94.24-20.75 94.39-20.95 94.69-20.95L94.69-20.95Q95.09-20.95 96.79-20.63 98.49-20.3 98.64-20.15L98.64-20.15Q97.69-16.05 96.54-11.7L96.54-11.7Q98.14-14.65 99.77-16.55 101.39-18.45 102.72-19.28 104.04-20.1 104.79-20.1L104.79-20.1Q105.44-20.1 107.07-19.48 108.69-18.85 108.69-18.5L108.69-18.5Q108.29-16.1 107.44-12.8L107.44-12.8Q112.69-20.65 115.04-20.65L115.04-20.65Q115.94-20.65 117.44-20.08 118.94-19.5 118.94-18.8L118.94-18.8Q118.39-17.05 118.44-17.15L118.44-17.15Q117.09-12.85 116.37-10.1 115.64-7.35 115.64-5.65L115.64-5.65Q115.64-2.55 118.54-2.55L118.54-2.55Q121.34-2.55 123.84-5.2 126.34-7.85 127.54-12.2L127.54-12.2ZM153.84-12.05Q154.74-12.05 154.74-10.55L154.74-10.55Q154.74-8.15 152.82-5.53 150.89-2.9 148.04-1.15 145.19 0.6 142.79 0.6L142.79 0.6Q140.89 0.6 139.47-0.5 138.04-1.6 137.44-3.35L137.44-3.35Q136.09-1.65 134.19-0.63 132.29 0.4 130.79 0.4L130.79 0.4Q129.49 0.4 128.19-0.38 126.89-1.15 125.99-2.35 125.09-3.55 125.04-4.75L125.04-4.75Q126.19-9.85 127.09-14.65L127.09-14.65Q127.29-15.65 128.79-17.18 130.29-18.7 132.39-19.8 134.49-20.9 136.39-20.9L136.39-20.9Q138.14-20.9 139.94-19.85L139.94-19.85Q140.29-20.7 140.49-20.93 140.69-21.15 141.09-21.2L141.09-21.2 145.44-21.45 145.59-21.35Q144.99-20.85 144.69-20.25 144.39-19.65 144.14-18.85L144.14-18.85Q143.24-15.8 142.29-11.48 141.34-7.15 141.34-5.5L141.34-5.5Q141.34-4.1 142.02-2.95 142.69-1.8 144.14-1.8L144.14-1.8Q145.64-1.8 147.62-3.1 149.59-4.4 151.32-6.75 153.04-9.1 153.84-12.05L153.84-12.05ZM132.39-2.6Q133.09-2.6 134.09-3.3 135.09-4 135.97-5.2 136.84-6.4 137.19-7.85L137.19-7.85 137.99-11.6Q138.89-16.2 139.24-17.65L139.24-17.65Q137.94-18.25 136.49-18.25L136.49-18.25Q134.14-18.25 132.97-16.78 131.79-15.3 131.39-13.45L131.39-13.45 129.84-5.9Q129.94-4.65 130.74-3.63 131.54-2.6 132.39-2.6L132.39-2.6ZM180.14-55.4Q182.44-55.4 184.59-54.6 186.74-53.8 188.16-52.08 189.59-50.35 189.59-47.7L189.59-47.7Q189.59-47.1 189.49-46.43 189.39-45.75 189.24-45.4L189.24-45.4Q185.79-50.4 179.04-50.4L179.04-50.4Q175.59-50.4 172.19-47.5 168.79-44.6 165.79-39.03 162.79-33.45 160.59-25.7L160.59-25.7Q158.94-19.8 157.96-15.9 156.99-12 155.79-6.5L155.79-6.5Q159.34-11.45 163.61-16.57 167.89-21.7 168.64-21.7L168.64-21.7Q169.34-21.7 171.06-21.08 172.79-20.45 173.19-19.7L173.19-19.7Q168.69-16.3 163.64-11.4L163.64-11.4Q163.84-7.05 165.14-4.78 166.44-2.5 168.69-2.5L168.69-2.5Q170.49-2.5 172.76-3.95 175.04-5.4 176.99-7.88 178.94-10.35 179.84-13.25L179.84-13.25Q180.49-13.25 180.81-12.83 181.14-12.4 181.14-11.75L181.14-11.75Q181.14-9.9 178.89-6.9 176.64-3.9 173.44-1.65 170.24 0.6 167.39 0.6L167.39 0.6Q164.49 0.6 162.76-1.78 161.04-4.15 160.59-8.3L160.59-8.3Q156.99-4.55 153.49-0.3L153.49-0.3Q153.39-0.15 153.09 0.28 152.79 0.7 152.59 0.7L152.59 0.7Q152.19 0.7 151.51 0.08 150.84-0.55 150.79-1L150.79-1Q150.69-2.45 152.91-12.5 155.14-22.55 156.89-28.8L156.89-28.8Q159.29-37.3 162.89-43.28 166.49-49.25 170.91-52.33 175.34-55.4 180.14-55.4L180.14-55.4ZM212.73-18.6Q216.13-18.05 218.51-16.07 220.88-14.1 220.88-10.4L220.88-10.4Q220.88-7.05 218.88-4.5 216.88-1.95 213.43-0.55 209.98 0.85 205.83 0.85L205.83 0.85Q203.48 0.85 201.36 0.4 199.23-0.05 197.68-0.75L197.68-0.75Q197.08 0.15 195.18 0.15L195.18 0.15Q194.38 0.15 193.46 0.05 192.53-0.05 192.03-0.25L192.03-0.25Q192.68-1.2 192.93-1.95 193.18-2.7 193.58-4.3L193.58-4.3Q195.08-10.55 197.16-20.48 199.23-30.4 199.23-31.95L199.23-31.95Q199.23-32.45 198.98-32.6 198.73-32.75 198.08-32.75L198.08-32.75Q196.78-32.75 194.48-32.4L194.48-32.4Q191.88-32.1 191.23-32.1L191.23-32.1Q190.48-32.1 190.13-32.3 189.78-32.5 189.78-33.05L189.78-33.05Q189.78-33.5 190.03-34.4 190.28-35.3 190.53-35.7L190.53-35.7Q190.63-35.65 191.01-35.43 191.38-35.2 192.16-35.1 192.93-35 194.23-35L194.23-35 205.78-35Q212.78-35 216.98-32.8 221.18-30.6 221.18-26.4L221.18-26.4Q221.18-20.6 212.73-18.6L212.73-18.6ZM205.63-1.8Q210.63-1.8 213.18-4.17 215.73-6.55 215.73-10.65L215.73-10.65Q215.73-13.8 214.13-15.3 212.53-16.8 209.03-16.8L209.03-16.8Q206.73-16.8 205.13-16.6L205.13-16.6Q204.73-17 204.43-17.65 204.13-18.3 204.13-19L204.13-19Q204.13-19.65 204.43-19.8L204.43-19.8Q204.83-19.75 206.01-19.68 207.18-19.6 207.88-19.6L207.88-19.6Q210.13-19.6 211.98-20.55 213.83-21.5 214.93-23.2 216.03-24.9 216.03-27.05L216.03-27.05Q216.03-29.95 213.93-31.38 211.83-32.8 207.83-32.8L207.83-32.8Q206.08-32.8 205.21-32.43 204.33-32.05 203.86-31 203.38-29.95 202.93-27.7L202.93-27.7Q199.48-10.4 198.43-3.9L198.43-3.9Q201.33-1.8 205.63-1.8L205.63-1.8ZM249.93-12.5Q251.08-12.5 251.08-10.85L251.08-10.85Q251.08-10 250.78-9.1L250.78-9.1Q250.08-6.9 247.91-4.7 245.73-2.5 242.71-1.07 239.68 0.35 236.48 0.35L236.48 0.35Q232.93 0.35 231.06-1.48 229.18-3.3 229.18-6.5L229.18-6.5Q229.18-9.25 230.46-16.3 231.73-23.35 233.38-30.93 235.03-38.5 235.98-41.9L235.98-41.9Q238.58-51.25 243.13-51.25L243.13-51.25Q245.38-51.25 246.48-49.2 247.58-47.15 247.58-44L247.58-44Q247.58-37.7 243.63-28.93 239.68-20.15 234.18-12.35L234.18-12.35Q233.78-9.15 233.78-7.3L233.78-7.3Q233.78-4.5 234.66-3.45 235.53-2.4 237.38-2.4L237.38-2.4Q239.88-2.4 242.41-3.85 244.93-5.3 246.93-7.63 248.93-9.95 249.93-12.5L249.93-12.5ZM240.48-41.25Q239.03-35.9 237.51-29.38 235.98-22.85 234.98-17.4L234.98-17.4Q238.73-23.95 241.48-31.45 244.23-38.95 244.23-43.95L244.23-43.95Q244.23-45.5 243.93-46.5 243.63-47.5 243.08-47.5L243.08-47.5Q242.58-47.5 242.06-46.28 241.53-45.05 240.48-41.25L240.48-41.25ZM276.93-18.15Q277.58-17.9 277.58-17.1L277.58-17.1Q277.58-15.7 276.23-14.43 274.88-13.15 272.7-12.35 270.53-11.55 268.23-11.55L268.23-11.55Q266.43-11.55 264.53-12.1L264.53-12.1Q264.48-11.75 264.38-11.33 264.28-10.9 264.18-10.3L264.18-10.3Q264.03-9.5 263.6-7.35 263.18-5.2 263.08-4.3L263.08-4.3Q262.68-3.45 261.38-2.33 260.08-1.2 258.33-0.4 256.58 0.4 254.88 0.4L254.88 0.4Q253.23 0.4 251.53-0.4 249.83-1.2 248.7-2.58 247.58-3.95 247.58-5.55L247.58-5.55Q248.28-8.25 248.63-10 248.98-11.75 249.48-15L249.48-15Q249.68-16.2 251.1-17.57 252.53-18.95 254.6-19.85 256.68-20.75 258.68-20.75L258.68-20.75 259.33-20.75Q259.48-21.65 260.03-22.08 260.58-22.5 261.68-22.5L261.68-22.5Q263.33-22.5 263.78-21.85L263.78-21.85Q263.28-19.75 263.28-18.85L263.28-18.85Q263.28-16.6 264.9-15.3 266.53-14 269.43-14L269.43-14Q271.88-14 273.93-15 275.98-16 276.93-18.15L276.93-18.15ZM255.38-2.3Q256.38-2.3 257.43-3.03 258.48-3.75 258.83-4.65L258.83-4.65Q259.33-7.35 259.78-9.25L259.78-9.25Q259.93-9.95 260.25-11.5 260.58-13.05 260.78-14.3L260.78-14.3Q259.53-15.55 259.23-17.3L259.23-17.3Q259.23-17.5 259.15-17.65 259.08-17.8 258.93-17.85L258.93-17.85Q258.63-17.95 258.08-17.95L258.08-17.95Q256.38-17.95 255.28-16.98 254.18-16 253.88-14.45L253.88-14.45Q252.83-9.55 251.98-5.7L251.98-5.7Q252.03-4.15 253.13-3.23 254.23-2.3 255.38-2.3L255.38-2.3ZM290.73-21.2Q291.23-20.9 291.23-20.55L291.23-20.55Q291.23-20 289.43-11.8 287.63-3.6 287.28-2L287.28-2 286.58 1.2Q283.23 16.4 277.2 22.83 271.18 29.25 262.98 29.25L262.98 29.25Q257.58 29.25 255.28 27.05 252.98 24.85 252.98 21.8L252.98 21.8Q252.98 20.75 253.23 19.6 253.48 18.45 253.88 17.8L253.88 17.8Q255.28 20.9 258 22.38 260.73 23.85 264.33 23.85L264.33 23.85Q270.78 23.85 274.68 19.88 278.58 15.9 280.18 11.2 281.78 6.5 282.68 1.45L282.68 1.45Q282.73 1.1 283.23-1.55L283.23-1.55Q282.03-0.65 280.73-0.13 279.43 0.4 278.43 0.4L278.43 0.4Q277.13 0.4 275.55-0.45 273.98-1.3 272.88-2.55 271.78-3.8 271.78-4.95L271.78-4.95Q272.88-9.7 273.93-15.45L273.93-15.45Q274.13-16.55 275.68-17.98 277.23-19.4 279.2-20.4 281.18-21.4 282.58-21.4L282.58-21.4Q283.48-21.4 284.58-20.98 285.68-20.55 286.63-19.8L286.63-19.8 287.03-22.5 287.23-22.55Q287.48-22.2 288.35-21.95 289.23-21.7 289.38-21.65L289.38-21.65Q290.48-21.35 290.73-21.2L290.73-21.2ZM284.38-7.4L285.93-15.9Q286.18-17.15 286.18-17.35L286.18-17.35Q284.83-18.65 283.13-18.65L283.13-18.65Q281.48-18.65 280.05-17.43 278.63-16.2 278.13-14.3L278.13-14.3 277.23-9.6 276.53-5.6Q276.53-4.3 277.4-3.35 278.28-2.4 279.43-2.4L279.43-2.4Q280.33-2.4 281.38-3 282.43-3.6 283.25-4.73 284.08-5.85 284.38-7.4L284.38-7.4Z" opacity="1" transform="matrix(1,0,0,1,0,0)" fill="#ffffff" class="undefined-text-0" data-fill-palette-color="primary" id="text-0"></path></svg></g></svg></g><g transform="matrix(1,0,0,1,0,88.23802035527143)"><svg viewBox="0 0 244.43136 11.864650217747485" height="11.864650217747485" width="244.43136"><g transform="matrix(1,0,0,1,0,0)"><svg width="244.43136" viewBox="-1.0700000524520874 -37.022857666015625 780.75 37.90285873413086" height="11.864650217747485" data-palette-color="#81ffd9"><path d="M29.13 0.63L26.1-19.04Q26-18.38 25.72-15.94 25.44-13.5 25.1-10.82 24.76-8.13 24.34-5.43 23.93-2.73 23.39-0.98 22.85 0.78 22.31 0.78L22.31 0.78Q21.26 0.78 19.21 0.73 17.16 0.68 16.11 0.68L16.11 0.68Q11.4 0.68 7.42 0.88L7.42 0.88Q7.08 0.71 6.82 0.34 6.57-0.02 6.41-0.54 6.25-1.05 6.16-1.45 6.08-1.86 5.99-2.48 5.91-3.1 5.86-3.32L5.86-3.32Q1.64-23.46 0.63-27.83L0.63-27.83-1.07-36.04Q-1.07-36.72-0.39-36.96L-0.39-36.96Q0.2-36.91 1.46-36.91L1.46-36.91 3.42-36.91Q4-36.91 5.1-36.96 6.2-37.01 6.69-37.01L6.69-37.01Q7.15-37.04 8.06-37 8.96-36.96 9.23-36.96L9.23-36.96 10.64-36.96Q10.89-36.91 11.38-36.91L11.38-36.91 12.11-36.91Q12.55-36.79 12.99-35.23 13.43-33.67 13.82-30.93 14.21-28.2 14.45-26.16 14.7-24.12 15-21.23 15.31-18.33 15.31-18.29L15.31-18.29 18.41-36.87Q19.58-36.77 20.26-36.77L20.26-36.77 21.78-36.77Q23.75-36.77 27.5-36.79 31.25-36.82 33.11-36.82L33.11-36.82Q33.62-36.82 33.74-36.43L33.74-36.43 36.79-16.24Q37.26-21.8 37.94-26.42L37.94-26.42 39.4-36.33Q39.58-36.91 41.11-36.91L41.11-36.91 42.29-36.91Q42.58-36.94 43.2-36.9 43.82-36.87 44.09-36.87L44.09-36.87 46.24-36.87Q47.14-36.87 48.28-36.84 49.41-36.82 49.46-36.82L49.46-36.82 52.34-36.82Q52.56-36.82 52.64-36.49 52.71-36.16 52.76-35.4L52.76-35.4 44.9 0.54Q44.41 0.59 43.73 0.59 43.04 0.59 42.48 0.57 41.92 0.56 41.19 0.55 40.45 0.54 39.99 0.54L39.99 0.54Q38.99 0.54 36.95 0.51 34.91 0.49 33.89 0.49L33.89 0.49Q33.76 0.49 29.13 0.63L29.13 0.63ZM70.97-6.05L63.45-6.05Q63.28-5.49 63.12-4.58 62.96-3.66 62.83-3.14 62.69-2.61 62.38-2.04 62.06-1.46 61.41-1.2 60.76-0.93 59.74-0.93L59.74-0.93 49.19-0.93 49.19-1.76Q50.49-5.64 52.96-13.67 55.44-21.7 56.81-25.83L56.81-25.83 56.81-25.78Q57.64-28.15 59.25-33.2L59.25-33.2Q59.27-33.25 59.32-33.33L59.32-33.33Q59.54-33.69 59.74-33.89L59.74-33.89 72.92-33.79Q76.29-33.79 76.63-33.2L76.63-33.2 76.63-32.57Q76.68-32.35 77.17-31.45L77.17-31.45Q79.54-24.19 80.64-20.9L80.64-20.9 80.64-20.61Q80.73-19.9 81.08-18.99 81.42-18.09 81.89-17.05 82.37-16.02 82.57-15.43L82.57-15.43 83.54-11.91Q84.4-9.08 86.06-4.35L86.06-4.35 86.06-4.39 86.06-3.91Q86.13-3.56 86.42-2.98 86.72-2.39 86.79-2.15L86.79-2.15Q86.79-1.46 86.51-1.27 86.23-1.07 85.42-1.07L85.42-1.07 74.09-1.07Q73.68-1.12 73.56-1.15 73.44-1.17 73.18-1.25 72.92-1.32 72.81-1.44 72.7-1.56 72.68-1.76L72.68-1.76 71.75-5.47Q71.65-5.93 71.56-5.99 71.46-6.05 70.97-6.05L70.97-6.05ZM64.62-14.65L64.62-14.75 64.62-14.65ZM69.99-17.68L69.99-17.68Q69.85-18.36 69.57-19.89 69.28-21.41 69.02-22.55 68.75-23.68 68.43-24.66L68.43-24.66 68.43-25.83Q68.23-26.34 67.75-26.56L67.75-26.56 67.75-26.51Q67.16-26.39 66.57-23.24L66.57-23.24 66.57-22.07Q66.53-21.9 66.35-21.75 66.18-21.61 66.18-21.58L66.18-21.58Q65.38-18.02 64.87-15.82L64.87-15.82Q64.87-15.58 64.74-14.97 64.62-14.36 64.62-14.26L64.62-14.26 70.68-14.26Q70.68-14.89 70.24-16.55L70.24-16.55 70.24-17.09Q70.21-17.16 70.1-17.37 69.99-17.58 69.99-17.68ZM85.86-24.71L85.86-24.71 85.86-33.5 114.28-33.5Q114.67-33.42 114.77-33.19 114.86-32.96 114.86-32.52L114.86-32.52 114.86-24.71Q114.81-24.12 114.18-24.12L114.18-24.12 107.25-24.12 107.25-1.66Q107.25-1.64 107.22-1.54 107.2-1.44 107.2-1.42 107.2-1.39 107.17-1.32 107.15-1.25 107.12-1.22 107.1-1.2 107.08-1.14 107.05-1.07 107.01-1.06 106.98-1.05 106.92-1.01 106.86-0.98 106.79-0.95 106.73-0.93 106.65-0.92 106.56-0.9 106.46-0.88L106.46-0.88 104.9-0.88Q101.78-0.88 101.78-1.07L101.78-1.07Q101.58-1.07 101.19-1.05 100.8-1.03 100.61-1.03L100.61-1.03 98.65-1.03Q98.09-1.03 97.05-1 96.02-0.98 95.43-0.98L95.43-0.98 94.06-0.98 93.09-1.66 93.09-6.93Q93.11-8.35 93.29-12.99 93.48-17.63 93.48-20.31L93.48-20.31 93.48-20.95Q93.48-21.14 93.5-21.56 93.53-21.97 93.53-22.17L93.53-22.17Q93.53-22.39 93.5-23.06 93.48-23.73 93.48-23.93L93.48-23.93 87.37-23.93Q86.84-23.93 86.35-24.11 85.86-24.29 85.86-24.71ZM132.44-0.2L132.44-0.2Q128.36-0.2 125.11-1.57 121.87-2.95 119.79-5.4 117.72-7.84 116.63-11.1 115.54-14.36 115.54-18.21L115.54-18.21 115.54-18.55Q115.57-18.73 115.63-19.4 115.69-20.07 115.7-20.28 115.72-20.48 115.79-21.07 115.86-21.66 115.91-21.92 115.96-22.19 116.04-22.71 116.13-23.22 116.24-23.55 116.35-23.88 116.5-24.34 116.64-24.8 116.81-25.22 116.98-25.63 117.2-26.07L117.2-26.07 117.2-26.03Q118.33-28.37 120.04-30.08 121.75-31.79 123.8-32.73 125.85-33.67 128-34.09 130.14-34.52 132.54-34.52L132.54-34.52Q135.56-34.52 138.01-33.92 140.45-33.33 142.06-32.32 143.67-31.32 144.82-29.9 145.96-28.47 146.55-26.95 147.14-25.44 147.38-23.68L147.38-23.68 147.38-21.58Q147.31-21.24 147.01-21.06 146.72-20.87 146.38-20.84 146.04-20.8 145.43-20.8L145.43-20.8 134.98-20.8 134.98-22.9Q134.86-23.73 134.27-24.41 133.68-25.1 132.83-25.1L132.83-25.1Q132.07-25.1 131.5-24.78 130.93-24.46 130.6-23.94 130.27-23.41 130.06-22.72 129.85-22.02 129.79-21.25 129.73-20.48 129.69-19.69 129.66-18.9 129.7-18.19L129.7-18.19Q129.7-17.7 129.7-17.48L129.7-17.48 129.7-14.75Q129.7-14.14 129.77-13.56 129.83-12.99 130.06-12.08 130.29-11.18 130.88-10.62 131.46-10.06 132.34-10.06L132.34-10.06Q133.27-10.06 133.72-10.84 134.17-11.62 134.48-12.72 134.78-13.82 135.17-14.21L135.17-14.21Q136.15-14.21 138.1-14.18 140.06-14.16 141.03-14.16L141.03-14.16Q141.72-14.16 143.06-14.18 144.4-14.21 145.09-14.21L145.09-14.21 146.89-14.21Q147.7-14.21 147.77-13.23L147.77-13.23 147.77-12.3Q147.23-7.45 144.18-4.47 141.13-1.49 136.54-0.68L136.54-0.68 136.54-0.54Q134.9-0.2 132.44-0.2ZM182.29-32.57L182.29-32.57 182.29-2.54Q182.29-2.03 182.25-1.72 182.22-1.42 182.05-1.15 181.87-0.88 181.56-0.88L181.56-0.88 169.11-0.88 169.11-1.42Q169.06-1.46 168.73-1.64 168.4-1.81 168.32-1.95L168.32-1.95 168.32-11.82Q168.32-12.35 168.24-12.43 168.15-12.5 167.54-12.5L167.54-12.5 165.88-12.5Q165.3-12.5 164.52-12.4L164.52-12.4 164.52-1.86Q164.42-1.42 164.14-1.29 163.86-1.17 163.3-1.17L163.3-1.17 162.17-1.17Q161.03-1.17 158.57-1.12 156.12-1.07 154.85-1.07L154.85-1.07 151.63-1.07Q150.58-1.07 150.58-2.25L150.58-2.25 150.72-33.01Q150.72-33.13 150.8-33.22 150.87-33.3 151.09-33.46 151.31-33.62 151.33-33.64L151.33-33.64 164.47-33.64 164.47-23.14 168.72-23.14 168.72-33.89 181.17-33.89Q181.75-33.89 182.02-33.62 182.29-33.35 182.29-32.57ZM199.47-29.25L199.47-29.25Q199.47-29.69 199.52-30.55 199.57-31.42 199.57-31.74L199.57-31.74Q199.57-31.86 199.52-32.62 199.47-33.37 199.47-33.94L199.47-33.94Q199.47-36.52 199.96-36.52L199.96-36.52Q200.16-36.52 200.3-36.47L200.3-36.47Q205.4-36.47 215.43-36.6 225.45-36.72 230.43-36.72L230.43-36.72Q231.67-36.72 232-36.5 232.33-36.28 232.33-35.64L232.33-35.64 232.33-34.96Q232.33-33.69 232.36-31.21 232.38-28.74 232.38-27.44L232.38-27.44Q232.38-26.17 231.7-26.17L231.7-26.17Q230.33-26.17 227.62-26.22 224.91-26.27 223.54-26.27L223.54-26.27 223.54-0.1Q223.37 0.63 222.71 0.68L222.71 0.68Q221.86 0.68 220.22 0.66 218.59 0.63 217.73 0.63L217.73 0.63Q217.69 0.63 217.64 0.68L217.64 0.68Q216.56 0.68 214.62 0.66 212.68 0.63 211.73 0.63L211.73 0.63 210.26 0.63Q209.78 0.68 208.85 0.68L208.85 0.68 207.87-0.49Q207.87-4.2 208.11-11.52 208.36-18.85 208.36-22.56L208.36-22.56Q208.36-22.73 208.35-23.12 208.33-23.51 208.33-23.75 208.33-24 208.3-24.37 208.26-24.73 208.18-24.96 208.09-25.2 207.97-25.43 207.85-25.66 207.64-25.77 207.43-25.88 207.14-25.88L207.14-25.88 200.16-25.88Q199.47-26.07 199.47-29.25ZM265.73-32.57L265.73-32.57 265.73-2.54Q265.73-2.03 265.69-1.72 265.66-1.42 265.49-1.15 265.31-0.88 265-0.88L265-0.88 252.55-0.88 252.55-1.42Q252.5-1.46 252.17-1.64 251.84-1.81 251.76-1.95L251.76-1.95 251.76-11.82Q251.76-12.35 251.68-12.43 251.59-12.5 250.98-12.5L250.98-12.5 249.32-12.5Q248.74-12.5 247.96-12.4L247.96-12.4 247.96-1.86Q247.86-1.42 247.58-1.29 247.3-1.17 246.74-1.17L246.74-1.17 245.61-1.17Q244.46-1.17 242.01-1.12 239.56-1.07 238.29-1.07L238.29-1.07 235.07-1.07Q234.02-1.07 234.02-2.25L234.02-2.25 234.16-33.01Q234.16-33.13 234.24-33.22 234.31-33.3 234.53-33.46 234.75-33.62 234.77-33.64L234.77-33.64 247.91-33.64 247.91-23.14 252.16-23.14 252.16-33.89 264.61-33.89Q265.19-33.89 265.46-33.62 265.73-33.35 265.73-32.57ZM270.32-1.81L270.32-31.54Q270.32-33.01 270.44-33.25L270.44-33.25Q270.66-33.59 271.15-33.59L271.15-33.59 271.73-33.59Q272.12-33.59 272.27-33.54L272.27-33.54 273.54-33.54Q276.01-33.54 281-33.67 285.99-33.79 288.48-33.79L288.48-33.79 294.98-33.79Q295.61-33.72 295.61-33.15L295.61-33.15 295.61-25Q295.59-24.85 295.52-24.74 295.46-24.63 295.43-24.6 295.39-24.56 295.19-24.43 295-24.29 294.93-24.22L294.93-24.22 283.6-24.22 283.6-21.19 284.67-21.19Q286.09-21.19 288.99-21.29 291.9-21.39 293.46-21.39L293.46-21.39Q294.15-21.39 294.39-21.12 294.63-20.85 294.63-20.36L294.63-20.36Q294.63-20.24 294.58-19.95 294.54-19.65 294.54-19.53L294.54-19.53 294.54-18.6Q294.54-18.51 294.56-18.2 294.58-17.9 294.58-17.68L294.58-17.68 294.58-16.99Q294.58-16.46 294.63-15.92 294.68-15.38 294.68-14.99L294.68-14.99 294.68-14.36Q294.56-14.06 294.49-13.96 294.41-13.87 294.24-13.87L294.24-13.87 294.24-13.92Q293.34-13.92 291.13-13.79 288.92-13.67 287.6-13.67L287.6-13.67 283.7-13.67 283.7-10.55Q283.89-10.55 284.28-10.52 284.67-10.5 284.87-10.5L284.87-10.5Q285.97-10.5 288.11-10.57 290.26-10.64 291.22-10.64L291.22-10.64 294.34-10.64Q295.61-10.64 295.95-10.35L295.95-10.35Q296.07-10.21 296.15-10.06L296.15-10.06 296.15-2.25Q296.15-1.73 295.95-1.46 295.76-1.2 295.22-1.17L295.22-1.17 271.05-1.17 270.32-1.81ZM340.89 0.63L337.87-19.04Q337.77-18.38 337.49-15.94 337.21-13.5 336.86-10.82 336.52-8.13 336.11-5.43 335.69-2.73 335.16-0.98 334.62 0.78 334.08 0.78L334.08 0.78Q333.03 0.78 330.98 0.73 328.93 0.68 327.88 0.68L327.88 0.68Q323.17 0.68 319.19 0.88L319.19 0.88Q318.85 0.71 318.59 0.34 318.33-0.02 318.18-0.54 318.02-1.05 317.93-1.45 317.85-1.86 317.76-2.48 317.68-3.1 317.63-3.32L317.63-3.32Q313.4-23.46 312.4-27.83L312.4-27.83 310.69-36.04Q310.69-36.72 311.38-36.96L311.38-36.96Q311.96-36.91 313.23-36.91L313.23-36.91 315.18-36.91Q315.77-36.91 316.87-36.96 317.97-37.01 318.46-37.01L318.46-37.01Q318.92-37.04 319.82-37 320.73-36.96 321-36.96L321-36.96 322.41-36.96Q322.66-36.91 323.14-36.91L323.14-36.91 323.88-36.91Q324.32-36.79 324.76-35.23 325.19-33.67 325.59-30.93 325.98-28.2 326.22-26.16 326.46-24.12 326.77-21.23 327.07-18.33 327.07-18.29L327.07-18.29 330.18-36.87Q331.35-36.77 332.03-36.77L332.03-36.77 333.54-36.77Q335.52-36.77 339.27-36.79 343.02-36.82 344.87-36.82L344.87-36.82Q345.39-36.82 345.51-36.43L345.51-36.43 348.56-16.24Q349.02-21.8 349.71-26.42L349.71-26.42 351.17-36.33Q351.34-36.91 352.88-36.91L352.88-36.91 354.05-36.91Q354.35-36.94 354.97-36.9 355.59-36.87 355.86-36.87L355.86-36.87 358.01-36.87Q358.91-36.87 360.05-36.84 361.18-36.82 361.23-36.82L361.23-36.82 364.11-36.82Q364.33-36.82 364.4-36.49 364.48-36.16 364.53-35.4L364.53-35.4 356.66 0.54Q356.18 0.59 355.49 0.59 354.81 0.59 354.25 0.57 353.69 0.56 352.95 0.55 352.22 0.54 351.76 0.54L351.76 0.54Q350.76 0.54 348.72 0.51 346.68 0.49 345.65 0.49L345.65 0.49Q345.53 0.49 340.89 0.63L340.89 0.63ZM363.5-16.21L363.5-17.68 363.45-18.21Q363.91-22.19 364.33-23.75L364.33-23.75Q365.28-27.42 367.75-29.88L367.75-29.88 368.33-30.47Q369.5-31.84 371.9-32.81L371.9-32.81 372.82-32.81Q375.22-33.81 380.69-34.67L380.69-34.67Q382.05-34.67 383.55-34.46 385.06-34.25 386.89-33.78 388.72-33.3 390.41-32.26 392.11-31.23 393.23-29.79L393.23-29.79 393.23-29.1Q397.24-24.1 397.24-17.87L397.24-17.87Q397.24-10.86 394.02-6.45L394.02-6.45 393.04-5.22Q391.92-3.83 390.24-2.83 388.57-1.83 386.69-1.31 384.81-0.78 383.09-0.56 381.37-0.34 379.66-0.34L379.66-0.34Q377.15-0.34 374.86-0.94 372.58-1.54 370.59-2.81 368.6-4.08 367.09-5.93 365.57-7.79 364.63-10.41 363.69-13.04 363.5-16.21L363.5-16.21ZM376.93-18.55L376.93-17.48Q376.93-8.89 380.2-8.89L380.2-8.89Q381.1-8.89 381.77-9.23 382.44-9.57 382.86-10.28 383.27-10.99 383.54-11.72 383.81-12.45 383.92-13.55 384.03-14.65 384.07-15.48 384.1-16.31 384.1-17.48L384.1-17.48 384.1-18.36Q384.1-19.63 383.96-20.8 383.81-21.97 383.46-23.16 383.1-24.34 382.37-25.06 381.64-25.78 380.59-25.78L380.59-25.78Q376.93-25.78 376.93-18.55L376.93-18.55ZM400.75-0.98L400.75-33.59 405.29-33.59Q407.39-33.59 412.01-33.69 416.62-33.79 418.92-33.79L418.92-33.79Q420.89-33.79 422.61-33.57 424.34-33.35 426.01-32.76 427.68-32.18 428.86-31.27 430.05-30.37 430.78-28.89 431.51-27.42 431.51-25.49L431.51-25.49Q431.51-22.83 430.27-20.95 429.02-19.07 426.43-17.77L426.43-17.77Q427.46-17.33 428.22-16.63 428.97-15.92 429.38-15.41 429.78-14.89 430.16-13.68 430.54-12.48 430.61-12.1 430.68-11.72 430.93-10.23L430.93-10.23Q431-9.89 431.02-9.72L431.02-9.72Q431.12-8.74 431.85-6.14 432.59-3.54 432.59-2.15L432.59-2.15Q432.59-1.27 432.05-1.27L432.05-1.27Q430.59-1.27 427.62-1.25 424.65-1.22 423.21-1.22L423.21-1.22Q422.63-1.27 421.45-1.27L421.45-1.27 419.79-1.27Q419.31-1.42 418.84-2.78 418.38-4.15 418.18-5.86L418.18-5.86 417.65-10.21Q417.5-10.74 417.41-10.97 417.33-11.21 417.11-11.54 416.89-11.87 416.51-11.99 416.13-12.11 415.55-12.11L415.55-12.11 414.42-12.11 414.42-2.34Q414.42-2.27 414.42-2.11 414.42-1.95 414.42-1.89 414.42-1.83 414.42-1.71 414.42-1.59 414.4-1.53 414.37-1.46 414.35-1.37 414.33-1.27 414.29-1.23 414.25-1.2 414.19-1.14 414.13-1.07 414.04-1.05 413.96-1.03 413.85-1 413.74-0.98 413.59-0.98L413.59-0.98 400.75-0.98ZM414.57-20.7L414.57-20.7Q414.62-20.65 414.72-20.5 414.81-20.34 414.91-20.24 415.01-20.14 415.11-20.12L415.11-20.12Q415.84-20.12 416.57-20.28 417.3-20.43 418.07-20.8 418.84-21.17 419.32-21.92 419.79-22.68 419.79-23.73L419.79-23.73Q419.79-26.27 414.91-26.27L414.91-26.27Q414.42-26.15 414.42-25.88L414.42-25.88 414.42-24.95Q414.42-24.24 414.5-22.83 414.57-21.41 414.57-20.7ZM457.73-0.98L435.32-0.98Q435.25-1.07 435.09-1.2 434.93-1.32 434.73-1.66L434.73-1.66 434.73-12.21Q434.73-14.28 434.9-18.58 435.07-22.88 435.07-25.1L435.07-25.1Q435.07-25.59 434.98-27.17 434.88-28.76 434.88-29.69L434.88-29.69Q434.88-33.13 435.71-33.89L435.71-33.89Q440.79-33.79 443.28-33.79L443.28-33.79 445.62-33.79Q446.45-33.79 446.89-33.74L446.89-33.74Q446.94-33.79 447.14-33.79L447.14-33.79Q447.18-33.79 447.56-33.74 447.94-33.69 448.16-33.69L448.16-33.69Q448.77-33.62 449.19-32.67L449.19-32.67 449.19-32.32Q449.19-32.06 449.16-31.54 449.14-31.03 449.14-30.76L449.14-30.76 449.14-29.69Q449.11-29.57 448.83-29.26 448.55-28.96 448.55-28.76L448.55-28.76 448.55-10.94 458.9-10.94Q459.29-10.94 459.49-10.91 459.68-10.89 459.88-10.69 460.07-10.5 460.07-10.11L460.07-10.11 460.07-1.95Q459.88-0.98 457.73-0.98L457.73-0.98ZM469.64-33.89L475.89-33.89Q479.24-33.89 481.91-33.45 484.58-33.01 487.04-31.88 489.49-30.76 491.13-28.96 492.76-27.15 493.73-24.27 494.69-21.39 494.69-17.58L494.69-17.58Q494.69-14.79 494.03-12.39 493.37-9.99 492.23-8.25 491.08-6.52 489.6-5.16 488.12-3.81 486.39-2.95 484.66-2.1 482.92-1.64 481.19-1.17 479.46-1.07L479.46-1.07 462.71-1.07 462.71-33.5Q462.78-33.5 462.98-33.47 463.17-33.45 463.25-33.45L463.25-33.45Q464.3-33.45 466.43-33.67 468.57-33.89 469.64-33.89L469.64-33.89ZM475.01-8.69L476.19-8.69Q477.43-8.69 478.38-9.09 479.34-9.5 479.91-10.25 480.48-11.01 480.86-11.84 481.24-12.67 481.41-13.79 481.58-14.92 481.64-15.76 481.7-16.6 481.7-17.68L481.7-17.68 481.7-19.43Q481.68-19.6 481.56-21.09 481.43-22.58 481.02-23.63L481.02-23.63Q480.63-24.39 480.15-24.94 479.68-25.49 479.21-25.79 478.75-26.1 478.13-26.26 477.5-26.42 476.99-26.46 476.48-26.51 475.75-26.51L475.75-26.51 475.75-25.98 475.01-25.98 475.01-8.69ZM548.69 0.1L548.69 0.1Q548.15 0.63 546.43 0.73 544.71 0.83 542.2 0.68 539.68 0.54 539.51 0.54L539.51 0.54Q537.85 0.54 537.12 0.49L537.12 0.49 534.68 0.49Q534.14 0.32 533.77-1.11 533.41-2.54 533.05-5.21 532.7-7.89 532.67-8.06L532.67-8.06Q532.58-10.47 531.89-11.24 531.21-12.01 529.4-12.01L529.4-12.01 528.33-12.01 528.33-0.1Q528.28 0.2 527.82 0.39 527.35 0.59 526.49 0.65 525.62 0.71 524.95 0.72 524.28 0.73 523.18 0.71 522.08 0.68 521.84 0.68L521.84 0.68 518.32 0.68Q515.34 0.68 513.83 0.73L513.83 0.73Q513.49 0.59 513.14 0.39L513.14 0.39 513.14-36.04Q513.14-36.72 515.1-36.72L515.1-36.72 536.39-36.72Q541.93-36.57 544.82-34.08 547.71-31.59 547.71-27.05L547.71-27.05Q547.71-21.14 541.76-18.41L541.76-18.41Q542.86-18.07 543.73-17.46 544.61-16.85 545.2-16.15 545.79-15.45 546.22-14.48 546.66-13.5 546.91-12.65 547.15-11.79 547.34-10.62 547.52-9.45 547.59-8.59 547.67-7.74 547.77-6.56 547.88-5.37 547.96-4.69L547.96-4.69 547.96-2.54Q548.03-2.15 548.41-1.44 548.79-0.73 548.89-0.39L548.89-0.39Q548.89 0.1 548.69 0.1ZM528.18-26.37L528.18-26.37Q528.18-24.9 528.21-24.19 528.23-23.49 528.48-22.34 528.72-21.19 529.21-20.7L529.21-20.7Q530.23-20.7 531.15-20.92 532.06-21.14 532.92-21.63 533.77-22.12 534.27-23.08 534.77-24.05 534.77-25.39L534.77-25.39Q534.77-26.15 534.51-26.72 534.24-27.29 533.72-27.64 533.21-27.98 532.71-28.19 532.21-28.39 531.49-28.48 530.77-28.56 530.36-28.59 529.94-28.61 529.35-28.61L529.35-28.61 528.77-28.61Q528.4-28.44 528.29-27.93 528.18-27.42 528.18-26.37ZM550.93-1.81L550.93-31.54Q550.93-33.01 551.06-33.25L551.06-33.25Q551.28-33.59 551.76-33.59L551.76-33.59 552.35-33.59Q552.74-33.59 552.89-33.54L552.89-33.54 554.16-33.54Q556.62-33.54 561.62-33.67 566.61-33.79 569.1-33.79L569.1-33.79 575.59-33.79Q576.23-33.72 576.23-33.15L576.23-33.15 576.23-25Q576.2-24.85 576.14-24.74 576.08-24.63 576.04-24.6 576.01-24.56 575.81-24.43 575.62-24.29 575.54-24.22L575.54-24.22 564.22-24.22 564.22-21.19 565.29-21.19Q566.71-21.19 569.61-21.29 572.52-21.39 574.08-21.39L574.08-21.39Q574.76-21.39 575.01-21.12 575.25-20.85 575.25-20.36L575.25-20.36Q575.25-20.24 575.2-19.95 575.15-19.65 575.15-19.53L575.15-19.53 575.15-18.6Q575.15-18.51 575.18-18.2 575.2-17.9 575.2-17.68L575.2-17.68 575.2-16.99Q575.2-16.46 575.25-15.92 575.3-15.38 575.3-14.99L575.3-14.99 575.3-14.36Q575.18-14.06 575.1-13.96 575.03-13.87 574.86-13.87L574.86-13.87 574.86-13.92Q573.96-13.92 571.75-13.79 569.54-13.67 568.22-13.67L568.22-13.67 564.31-13.67 564.31-10.55Q564.51-10.55 564.9-10.52 565.29-10.5 565.48-10.5L565.48-10.5Q566.58-10.5 568.73-10.57 570.88-10.64 571.83-10.64L571.83-10.64 574.96-10.64Q576.23-10.64 576.57-10.35L576.57-10.35Q576.69-10.21 576.76-10.06L576.76-10.06 576.76-2.25Q576.76-1.73 576.57-1.46 576.37-1.2 575.84-1.17L575.84-1.17 551.67-1.17 550.93-1.81ZM594.88-33.5L597.37-33.5Q597.54-33.54 597.92-33.58 598.29-33.62 598.39-33.64L598.39-33.64 601.3-18.77 605.11-33.69 622.27-33.69Q622.95-33.69 622.95-30.81L622.95-30.81 622.95-2.05Q622.9-1.66 622.73-1.42 622.56-1.17 622.23-1.09 621.9-1 621.72-0.99 621.54-0.98 621.1-0.98L621.1-0.98Q619.56-0.98 616.42-0.93 613.29-0.88 611.72-0.88L611.72-0.88Q610.5-1.64 610.5-6.49L610.5-6.49Q610.5-7.71 610.55-9.68 610.6-11.65 610.6-12.6L610.6-12.6 610.6-14.75Q610.6-14.92 610.58-15.3 610.55-15.67 610.55-15.87L610.55-15.87Q610.55-16.7 610.65-18.55L610.65-18.55 610.65-16.7Q610.31-15.26 609.33-12.3 608.35-9.35 608.01-7.91L608.01-7.91 606.55-1.66Q606.16-0.98 604.11-0.98L604.11-0.98Q603.1-0.98 601.51-1.03 599.91-1.07 599.08-1.07L599.08-1.07Q598.83-1.07 598.25-1.05 597.66-1.03 597.51-1.03L597.51-1.03Q596.73-1.03 596.39-1.22 596.05-1.42 595.9-2L595.9-2Q593.61-12.18 592.73-16.41L592.73-16.41 591.85-20.61Q591.51-13.5 591.51-5.57L591.51-5.57 591.51-1.27 579.98-1.27Q579.98-1.42 580.06-1.9 580.13-2.39 580.13-2.44L580.13-2.44Q579.94-7.13 579.94-14.01L579.94-14.01Q579.94-16.09 579.91-19.54 579.89-23 579.89-24.32L579.89-24.32 579.89-32.96Q579.89-33.28 579.98-33.44 580.08-33.59 580.47-33.89L580.47-33.89 582.72-33.89Q583.94-33.89 584.48-33.94L584.48-33.94Q586.94-33.94 590.47-33.72 594-33.5 594.88-33.5L594.88-33.5ZM610.65-18.75L610.65-18.7 610.65-18.75ZM625.98-16.21L625.98-17.68 625.93-18.21Q626.39-22.19 626.81-23.75L626.81-23.75Q627.76-27.42 630.23-29.88L630.23-29.88 630.81-30.47Q631.98-31.84 634.38-32.81L634.38-32.81 635.3-32.81Q637.7-33.81 643.17-34.67L643.17-34.67Q644.53-34.67 646.03-34.46 647.54-34.25 649.37-33.78 651.2-33.3 652.89-32.26 654.59-31.23 655.71-29.79L655.71-29.79 655.71-29.1Q659.72-24.1 659.72-17.87L659.72-17.87Q659.72-10.86 656.5-6.45L656.5-6.45 655.52-5.22Q654.4-3.83 652.72-2.83 651.05-1.83 649.17-1.31 647.29-0.78 645.57-0.56 643.85-0.34 642.14-0.34L642.14-0.34Q639.63-0.34 637.34-0.94 635.06-1.54 633.07-2.81 631.08-4.08 629.57-5.93 628.05-7.79 627.11-10.41 626.17-13.04 625.98-16.21L625.98-16.21ZM639.41-18.55L639.41-17.48Q639.41-8.89 642.68-8.89L642.68-8.89Q643.58-8.89 644.25-9.23 644.92-9.57 645.34-10.28 645.75-10.99 646.02-11.72 646.29-12.45 646.4-13.55 646.51-14.65 646.55-15.48 646.58-16.31 646.58-17.48L646.58-17.48 646.58-18.36Q646.58-19.63 646.44-20.8 646.29-21.97 645.94-23.16 645.58-24.34 644.85-25.06 644.12-25.78 643.07-25.78L643.07-25.78Q639.41-25.78 639.41-18.55L639.41-18.55ZM660.69-24.71L660.69-24.71 660.69-33.5 689.11-33.5Q689.5-33.42 689.6-33.19 689.7-32.96 689.7-32.52L689.7-32.52 689.7-24.71Q689.65-24.12 689.01-24.12L689.01-24.12 682.08-24.12 682.08-1.66Q682.08-1.64 682.05-1.54 682.03-1.44 682.03-1.42 682.03-1.39 682.01-1.32 681.98-1.25 681.96-1.22 681.93-1.2 681.91-1.14 681.88-1.07 681.85-1.06 681.81-1.05 681.75-1.01 681.69-0.98 681.63-0.95 681.57-0.93 681.48-0.92 681.4-0.9 681.3-0.88L681.3-0.88 679.74-0.88Q676.61-0.88 676.61-1.07L676.61-1.07Q676.41-1.07 676.02-1.05 675.63-1.03 675.44-1.03L675.44-1.03 673.49-1.03Q672.92-1.03 671.89-1 670.85-0.98 670.26-0.98L670.26-0.98 668.9-0.98 667.92-1.66 667.92-6.93Q667.94-8.35 668.13-12.99 668.31-17.63 668.31-20.31L668.31-20.31 668.31-20.95Q668.31-21.14 668.33-21.56 668.36-21.97 668.36-22.17L668.36-22.17Q668.36-22.39 668.33-23.06 668.31-23.73 668.31-23.93L668.31-23.93 662.21-23.93Q661.67-23.93 661.18-24.11 660.69-24.29 660.69-24.71ZM691.55-1.81L691.55-31.54Q691.55-33.01 691.67-33.25L691.67-33.25Q691.89-33.59 692.38-33.59L692.38-33.59 692.97-33.59Q693.36-33.59 693.5-33.54L693.5-33.54 694.77-33.54Q697.24-33.54 702.23-33.67 707.22-33.79 709.71-33.79L709.71-33.79 716.21-33.79Q716.84-33.72 716.84-33.15L716.84-33.15 716.84-25Q716.82-24.85 716.76-24.74 716.7-24.63 716.66-24.6 716.62-24.56 716.43-24.43 716.23-24.29 716.16-24.22L716.16-24.22 704.83-24.22 704.83-21.19 705.9-21.19Q707.32-21.19 710.23-21.29 713.13-21.39 714.69-21.39L714.69-21.39Q715.38-21.39 715.62-21.12 715.87-20.85 715.87-20.36L715.87-20.36Q715.87-20.24 715.82-19.95 715.77-19.65 715.77-19.53L715.77-19.53 715.77-18.6Q715.77-18.51 715.79-18.2 715.82-17.9 715.82-17.68L715.82-17.68 715.82-16.99Q715.82-16.46 715.87-15.92 715.91-15.38 715.91-14.99L715.91-14.99 715.91-14.36Q715.79-14.06 715.72-13.96 715.65-13.87 715.47-13.87L715.47-13.87 715.47-13.92Q714.57-13.92 712.36-13.79 710.15-13.67 708.83-13.67L708.83-13.67 704.93-13.67 704.93-10.55Q705.12-10.55 705.51-10.52 705.9-10.5 706.1-10.5L706.1-10.5Q707.2-10.5 709.35-10.57 711.5-10.64 712.45-10.64L712.45-10.64 715.57-10.64Q716.84-10.64 717.18-10.35L717.18-10.35Q717.31-10.21 717.38-10.06L717.38-10.06 717.38-2.25Q717.38-1.73 717.18-1.46 716.99-1.2 716.45-1.17L716.45-1.17 692.28-1.17 691.55-1.81ZM742.96-0.98L720.55-0.98Q720.48-1.07 720.32-1.2 720.16-1.32 719.96-1.66L719.96-1.66 719.96-12.21Q719.96-14.28 720.14-18.58 720.31-22.88 720.31-25.1L720.31-25.1Q720.31-25.59 720.21-27.17 720.11-28.76 720.11-29.69L720.11-29.69Q720.11-33.13 720.94-33.89L720.94-33.89Q726.02-33.79 728.51-33.79L728.51-33.79 730.85-33.79Q731.68-33.79 732.12-33.74L732.12-33.74Q732.17-33.79 732.37-33.79L732.37-33.79Q732.42-33.79 732.79-33.74 733.17-33.69 733.39-33.69L733.39-33.69Q734-33.62 734.42-32.67L734.42-32.67 734.42-32.32Q734.42-32.06 734.39-31.54 734.37-31.03 734.37-30.76L734.37-30.76 734.37-29.69Q734.34-29.57 734.06-29.26 733.78-28.96 733.78-28.76L733.78-28.76 733.78-10.94 744.13-10.94Q744.53-10.94 744.72-10.91 744.92-10.89 745.11-10.69 745.31-10.5 745.31-10.11L745.31-10.11 745.31-1.95Q745.11-0.98 742.96-0.98L742.96-0.98ZM745.84-33.69L758.76-33.69 762.59-21.63Q764.44-26.59 766.06-31.54L766.06-31.54Q766.1-31.74 766.35-32.28 766.59-32.81 766.64-33.15L766.64-33.15Q766.84-33.74 769.28-33.74L769.28-33.74Q769.45-33.74 769.75-33.72 770.06-33.69 770.25-33.69L770.25-33.69Q774.23-33.74 778.85-33.79L778.85-33.79Q779.43-33.72 779.68-32.59L779.68-32.59 768.59-12.52 768.99-10.89Q768.99-9.47 769.03-6.57 769.08-3.66 769.08-2.54L769.08-2.54 769.08-1.81Q768.99-1.46 768.7-1.25 768.42-1.03 767.92-0.96 767.42-0.9 767.04-0.89 766.67-0.88 765.97-0.9 765.27-0.93 765.03-0.93L765.03-0.93 755.7-0.93 754.92-1.95 754.92-12.16 749.28-24.19 746.67-27.86Q744.67-31.86 744.67-33.01L744.67-33.01Q744.67-33.69 745.84-33.69L745.84-33.69Z" opacity="1" transform="matrix(1,0,0,1,0,0)" fill="#81ffd9" class="undefined-text-1" data-fill-palette-color="secondary" id="text-1"></path></svg></g></svg></g></svg></g></svg></g></svg></g></svg></g></svg></g><g><path d="M151.089 190.504A122.216 122.216 0 1 0 151.089 56.696L157.526 56.696A115.778 115.778 0 1 1 157.526 190.504L151.089 190.504" fill="#ffffff" stroke="transparent" data-fill-palette-color="tertiary"></path></g></svg></g></svg><rect width="395.52" height="247.2" fill="none" stroke="none" visibility="hidden"></rect></g></svg></g></svg>